<svg width="27" height="26" viewBox="0 0 27 26" fill="none" xmlns="http://www.w3.org/2000/svg">
<path d="M26.15 13.44C25.9278 12.2683 25.2621 11.2275 24.2915 10.5345C23.3209 9.8415 22.1204 9.54974 20.94 9.72001C20.0393 9.80577 19.1868 10.1665 18.4981 10.7532C17.8093 11.34 17.3178 12.1244 17.09 13C16.803 13.8538 16.7782 14.7739 17.0188 15.6419C17.2594 16.5098 17.7544 17.2859 18.44 17.87C18.9716 18.3411 19.6047 18.6833 20.29 18.87L20.88 19.06L20.7 19.84C20.7 19.91 20.7 19.98 20.65 20.04C20.284 21.4627 19.4088 22.7016 18.1902 23.522C16.9717 24.3424 15.4945 24.6873 14.0387 24.4913C12.5828 24.2953 11.2495 23.572 10.2913 22.4586C9.33315 21.3451 8.81676 19.9188 8.84 18.45C8.84 17.79 8.84 17.12 8.84 16.45V14.55C8.82006 14.3111 8.89318 14.0736 9.04411 13.8873C9.19504 13.701 9.41211 13.5801 9.65 13.55C11.1906 13.254 12.5936 12.4663 13.6484 11.3051C14.7032 10.1439 15.3529 8.67186 15.5 7.11001C15.61 5.58001 15.59 4.01001 15.58 2.48001C15.58 1.97001 15.58 1.48001 15.58 0.940013C15.5833 0.850315 15.5673 0.760955 15.5332 0.677918C15.4992 0.594881 15.4477 0.520085 15.3824 0.458539C15.3171 0.396992 15.2393 0.350117 15.1544 0.321053C15.0695 0.291988 14.9793 0.281405 14.89 0.290013H14.5C13.74 0.290013 12.97 0.290013 12.22 0.290013C12.0329 0.31305 11.8543 0.381732 11.7 0.490013C11.6123 0.57488 11.5521 0.684089 11.5272 0.803527C11.5022 0.922964 11.5137 1.04714 11.56 1.16001C11.5996 1.28633 11.6762 1.39782 11.78 1.48001C11.8876 1.55804 12.0171 1.60004 12.15 1.60001H14.15V3.82001C14.15 4.03001 14.15 4.25001 14.15 4.46001V4.78001C14.1683 5.55757 14.1416 6.33554 14.07 7.11001C13.9208 8.53951 13.2389 9.86044 12.16 10.81C11.0776 11.7725 9.68806 12.3183 8.24 12.35H8.11C6.70998 12.3585 5.35302 11.8664 4.28397 10.9624C3.21491 10.0583 2.50418 8.802 2.28 7.42001C2.15719 6.24427 2.11376 5.06159 2.15 3.88001V3.81001C2.15 3.33001 2.15 2.81001 2.15 2.36001C2.15078 2.26357 2.17119 2.1683 2.21 2.08001C2.24705 1.99321 2.3015 1.91493 2.37 1.85001L2.58 1.62001H3.5C3.75 1.62001 3.99 1.62001 4.22 1.62001C4.38301 1.60315 4.53333 1.52441 4.64 1.40001C4.74467 1.29261 4.80532 1.14991 4.81 1.00001C4.82114 0.916974 4.81533 0.832539 4.79292 0.751808C4.77052 0.671078 4.73198 0.595725 4.67964 0.530302C4.6273 0.464879 4.56225 0.410743 4.4884 0.371162C4.41456 0.331581 4.33346 0.307378 4.25 0.300013C3.83 0.300013 3.41 0.300013 2.99 0.300013H1.63C1.03 0.280013 0.800004 0.500013 0.800004 1.10001V3.00001C0.800004 4.00001 0.800004 5.12001 0.800004 6.18001C0.797357 6.64604 0.837526 7.11133 0.920004 7.57001C1.1618 9.03808 1.84402 10.398 2.87626 11.4695C3.90849 12.541 5.24199 13.2736 6.7 13.57C6.93531 13.6025 7.14894 13.7247 7.29619 13.9111C7.44344 14.0975 7.51289 14.3336 7.49 14.57C7.49 15.02 7.49 15.5 7.49 16.08C7.49 16.31 7.49 16.53 7.49 16.75V17.08C7.47305 17.8174 7.49642 18.5552 7.56 19.29C7.76455 21.0386 8.58996 22.6558 9.8861 23.8472C11.1822 25.0387 12.863 25.7253 14.6226 25.7822C16.3822 25.8391 18.1038 25.2626 19.4743 24.1574C20.8447 23.0522 21.7729 21.4918 22.09 19.76C22.1212 19.5532 22.2128 19.3603 22.3534 19.2055C22.494 19.0507 22.6772 18.9409 22.88 18.89C24.0084 18.5559 24.9704 17.8106 25.5759 16.8015C26.1813 15.7924 26.3862 14.5929 26.15 13.44ZM23.92 16.74C23.6125 17.0548 23.2455 17.3053 22.8404 17.4769C22.4352 17.6486 22 17.738 21.56 17.74C21.12 17.738 20.6848 17.6486 20.2796 17.4769C19.8745 17.3053 19.5075 17.0548 19.2 16.74C18.5688 16.1158 18.2095 15.2677 18.2 14.38C18.2012 13.9384 18.2902 13.5014 18.4619 13.0946C18.6336 12.6877 18.8845 12.319 19.2 12.01C19.51 11.6958 19.8789 11.4458 20.2855 11.2742C20.6922 11.1026 21.1286 11.0129 21.57 11.01C22.4594 11.01 23.3125 11.3626 23.9424 11.9906C24.5722 12.6186 24.9274 13.4706 24.93 14.36C24.9266 14.8037 24.8356 15.2423 24.6623 15.6507C24.489 16.0591 24.2367 16.4293 23.92 16.74Z" fill="#002A50"/>
</svg>
