<svg width="16" height="17" viewBox="0 0 16 17" fill="none" xmlns="http://www.w3.org/2000/svg">
<path d="M12.75 11.7302C12.1483 11.7302 11.61 11.9677 11.1983 12.3397L5.55375 9.05433C5.59333 8.87224 5.625 8.69016 5.625 8.50016C5.625 8.31016 5.59333 8.12808 5.55375 7.94599L11.135 4.69225C11.5625 5.08808 12.1246 5.3335 12.75 5.3335C13.3799 5.3335 13.984 5.08327 14.4294 4.63787C14.8748 4.19248 15.125 3.58838 15.125 2.9585C15.125 2.32861 14.8748 1.72452 14.4294 1.27912C13.984 0.833719 13.3799 0.583496 12.75 0.583496C12.1201 0.583496 11.516 0.833719 11.0706 1.27912C10.6252 1.72452 10.375 2.32861 10.375 2.9585C10.375 3.1485 10.4067 3.33058 10.4462 3.51266L4.865 6.76641C4.4375 6.37058 3.87542 6.12516 3.25 6.12516C2.62011 6.12516 2.01602 6.37538 1.57062 6.82078C1.12522 7.26618 0.875 7.87027 0.875 8.50016C0.875 9.13005 1.12522 9.73414 1.57062 10.1795C2.01602 10.6249 2.62011 10.8752 3.25 10.8752C3.87542 10.8752 4.4375 10.6297 4.865 10.2339L10.5017 13.5193C10.4621 13.6856 10.4383 13.8597 10.4383 14.0418C10.4383 15.3164 11.4754 16.3456 12.75 16.3456C14.0246 16.3456 15.0617 15.3164 15.0617 14.0418C15.0617 13.4287 14.8181 12.8408 14.3846 12.4072C13.9511 11.9737 13.3631 11.7302 12.75 11.7302Z" fill="#353537"/>
</svg>
